<?xml version="1.0" encoding="utf-8"?>
<!-- Generator: Adobe Illustrator 16.0.4, SVG Export Plug-In . SVG Version: 6.00 Build 0)  -->
<!DOCTYPE svg PUBLIC "-//W3C//DTD SVG 1.1//EN" "http://www.w3.org/Graphics/SVG/1.1/DTD/svg11.dtd">
<svg version="1.1" xmlns="http://www.w3.org/2000/svg" xmlns:xlink="http://www.w3.org/1999/xlink" x="0px" y="0px" width="130px"
	 height="45px" viewBox="0 0 130 45" enable-background="new 0 0 130 45" xml:space="preserve">
<g id="Layer_2" display="none">
	<rect y="-0.428" display="inline" fill="#8CC63F" width="130" height="45"/>
</g>
<g id="Large_Version" display="none">
	<circle display="inline" fill="#FFFFFF" cx="21.927" cy="22.722" r="14.501"/>
	<g display="inline">
		<g>
			<path fill="none" stroke="#FFFFFF" stroke-width="0.9671" stroke-miterlimit="10" d="M35.655,13.419
				c1.801,2.652,2.854,5.855,2.854,9.303c0,9.157-7.424,16.581-16.582,16.581c-9.157,0-16.581-7.423-16.581-16.581
				c0-9.158,7.423-16.582,16.581-16.582c4.451,0,8.492,1.753,11.47,4.607"/>
			<g>
				<polygon fill="#FFFFFF" points="31.794,11.577 35.025,12.552 34.255,9.266 				"/>
			</g>
		</g>
	</g>
	<g display="inline">
		<path fill="#8CC63F" d="M10.858,24.352v-8.19h1.156v8.17c0,2.69,1.415,4.325,4.025,4.325c2.631,0,4.026-1.635,4.026-4.325v-8.17
			h1.156v8.19c0,3.289-1.754,5.341-5.182,5.341C12.632,29.693,10.858,27.62,10.858,24.352z"/>
		<path fill="#8CC63F" d="M32.288,29.454l-4.643-5.998l-4.624,5.998h-1.435l5.36-6.815l-5.062-6.477h1.455l4.305,5.64l4.324-5.64
			h1.435l-5.042,6.457l5.34,6.835H32.288z"/>
	</g>
	<path display="inline" fill="#FFFFFF" d="M42.221,29.552V16.109h3.535v1.809c0.974-1.169,2.617-2.143,4.287-2.143v3.451
		c-0.25-0.056-0.557-0.083-0.974-0.083c-1.169,0-2.728,0.667-3.312,1.531v8.878H42.221z"/>
	<path display="inline" fill="#FFFFFF" d="M49.607,22.817c0-3.897,2.895-7.042,6.958-7.042c4.036,0,6.736,3.006,6.736,7.376v0.835
		H53.31c0.25,1.642,1.586,3.006,3.869,3.006c1.141,0,2.7-0.473,3.563-1.308l1.586,2.337c-1.336,1.225-3.452,1.866-5.539,1.866
		C52.697,29.887,49.607,27.131,49.607,22.817z M56.566,18.669c-2.199,0-3.146,1.531-3.284,2.867h6.625
		C59.795,20.256,58.904,18.669,56.566,18.669z"/>
	<path display="inline" fill="#FFFFFF" d="M65.461,29.552V19.198h-2.226v-3.089h2.226v-0.557c0-3.145,1.921-4.843,4.509-4.843
		c1.03,0,1.921,0.222,2.561,0.557l-0.724,2.617c-0.278-0.195-0.668-0.278-1.141-0.278c-1.002,0-1.67,0.64-1.67,1.948v0.557h2.728
		v3.089h-2.728v10.354H65.461z"/>
	<path display="inline" fill="#FFFFFF" d="M73.033,29.552V16.109h3.535v1.809c0.975-1.169,2.617-2.143,4.287-2.143v3.451
		c-0.25-0.056-0.557-0.083-0.974-0.083c-1.169,0-2.728,0.667-3.312,1.531v8.878H73.033z"/>
	<path display="inline" fill="#FFFFFF" d="M80.54,22.817c0-3.897,2.895-7.042,6.958-7.042c4.037,0,6.737,3.006,6.737,7.376v0.835
		h-9.993c0.25,1.642,1.587,3.006,3.869,3.006c1.141,0,2.7-0.473,3.563-1.308l1.586,2.337c-1.336,1.225-3.452,1.866-5.539,1.866
		C83.629,29.887,80.54,27.131,80.54,22.817z M87.497,18.669c-2.198,0-3.145,1.531-3.283,2.867h6.624
		C90.727,20.256,89.835,18.669,87.497,18.669z"/>
	<path display="inline" fill="#FFFFFF" d="M94.29,27.799l1.531-2.56c1.002,0.946,2.978,1.865,4.648,1.865
		c1.531,0,2.254-0.584,2.254-1.419c0-2.199-7.96-0.39-7.96-5.679c0-2.254,1.948-4.23,5.511-4.23c2.255,0,4.064,0.779,5.401,1.837
		l-1.42,2.505c-0.807-0.835-2.338-1.559-3.981-1.559c-1.28,0-2.115,0.557-2.115,1.309c0,1.976,7.989,0.306,7.989,5.733
		c0,2.478-2.115,4.287-5.845,4.287C97.963,29.887,95.709,29.108,94.29,27.799z"/>
	<path display="inline" fill="#FFFFFF" d="M116.582,29.552V21.37c0-1.865-0.974-2.45-2.478-2.45c-1.391,0-2.478,0.779-3.062,1.559
		v9.073h-3.562V10.987h3.562v6.847c0.863-1.002,2.505-2.06,4.704-2.06c2.95,0,4.371,1.614,4.371,4.23v9.547H116.582z"/>
</g>
<g id="Small_Version">
	<circle fill="#FFFFFF" cx="22.236" cy="22.465" r="13.086"/>
	
		<text transform="matrix(1 0 0 1 10.7544 28.5415)" fill="#8CC63F" font-family="'ProximaNova-Light'" font-size="17.9827" letter-spacing="-1">UX</text>
	<path fill="#FFFFFF" d="M43.23,28.63V16.499h3.19v1.633c0.879-1.056,2.361-1.935,3.868-1.935v3.115
		c-0.226-0.05-0.502-0.075-0.879-0.075c-1.055,0-2.461,0.603-2.989,1.381v8.013H43.23z"/>
	<path fill="#FFFFFF" d="M49.896,22.552c0-3.517,2.612-6.355,6.279-6.355c3.642,0,6.079,2.713,6.079,6.656v0.753h-9.018
		c0.226,1.482,1.432,2.713,3.492,2.713c1.03,0,2.437-0.426,3.215-1.18l1.432,2.109c-1.206,1.105-3.114,1.684-4.999,1.684
		C52.684,28.932,49.896,26.445,49.896,22.552z M56.175,18.81c-1.984,0-2.838,1.381-2.964,2.586h5.978
		C59.089,20.241,58.285,18.81,56.175,18.81z"/>
	<path fill="#FFFFFF" d="M64.203,28.63v-9.344h-2.01v-2.788h2.01v-0.502c0-2.839,1.733-4.371,4.069-4.371
		c0.929,0,1.732,0.201,2.31,0.502l-0.653,2.362c-0.251-0.176-0.603-0.251-1.03-0.251c-0.904,0-1.507,0.578-1.507,1.758v0.502h2.461
		v2.788h-2.461v9.344H64.203z"/>
	<path fill="#FFFFFF" d="M71.035,28.63V16.499h3.19v1.633c0.879-1.056,2.361-1.935,3.868-1.935v3.115
		c-0.226-0.05-0.502-0.075-0.879-0.075c-1.055,0-2.462,0.603-2.989,1.381v8.013H71.035z"/>
	<path fill="#FFFFFF" d="M77.809,22.552c0-3.517,2.612-6.355,6.279-6.355c3.642,0,6.078,2.713,6.078,6.656v0.753h-9.017
		c0.226,1.482,1.432,2.713,3.492,2.713c1.03,0,2.436-0.426,3.215-1.18l1.432,2.109c-1.206,1.105-3.115,1.684-4.999,1.684
		C80.597,28.932,77.809,26.445,77.809,22.552z M84.088,18.81c-1.984,0-2.838,1.381-2.964,2.586h5.979
		C87.002,20.241,86.198,18.81,84.088,18.81z"/>
	<path fill="#FFFFFF" d="M90.82,27.048l1.382-2.311c0.904,0.854,2.688,1.682,4.195,1.682c1.381,0,2.034-0.526,2.034-1.28
		c0-1.985-7.184-0.352-7.184-5.125c0-2.034,1.758-3.818,4.973-3.818c2.035,0,3.667,0.704,4.873,1.658l-1.281,2.261
		c-0.729-0.753-2.11-1.406-3.592-1.406c-1.155,0-1.909,0.502-1.909,1.18c0,1.783,7.208,0.276,7.208,5.174
		c0,2.235-1.909,3.869-5.274,3.869C94.135,28.932,92.101,28.228,90.82,27.048z"/>
	<path fill="#FFFFFF" d="M110.937,28.63v-7.385c0-1.683-0.879-2.21-2.235-2.21c-1.256,0-2.235,0.703-2.763,1.407v8.188h-3.215
		V11.876h3.215v6.179c0.778-0.904,2.26-1.859,4.245-1.859c2.663,0,3.944,1.457,3.944,3.818v8.616H110.937z"/>
	<g>
		<g>
			<path fill="none" stroke="#FFFFFF" stroke-width="1.3405" stroke-linecap="round" stroke-miterlimit="10" d="M37.354,14.573
				c1.254,2.377,1.964,5.085,1.964,7.96c0,9.434-7.648,17.081-17.082,17.081S5.155,31.966,5.155,22.533S12.803,5.451,22.236,5.451
				c4.324,0,8.273,1.607,11.282,4.256"/>
			<g>
				<polygon fill="#FFFFFF" points="30.978,11.035 36.103,12.556 34.859,7.356 				"/>
			</g>
		</g>
	</g>
</g>
</svg>
